<svg width="1024" height="760" viewBox="0 0 1024 760" xmlns="http://www.w3.org/2000/svg">
<polygon opacity="0.1" fill="#000000" points="390,618 390,17 99,97 99,698 "/>
<polyline fill="none" opacity="0.2" stroke="#000000" stroke-width="1" points="390,618 390,17 99,97 99,698 390,618 "/>
<polyline fill="none" opacity="0.2" stroke="#000000" stroke-width="1" points="390,559 99,639 "/>
<polyline fill="none" opacity="0.2" stroke="#000000" stroke-width="1" points="390,499 99,579 "/>
<polyline fill="none" opacity="0.2" stroke="#000000" stroke-width="1" points="390,438 99,518 "/>
<polyline fill="none" opacity="0.2" stroke="#000000" stroke-width="1" points="390,378 99,458 "/>
<polyline fill="none" opacity="0.2" stroke="#000000" stroke-width="1" points="390,318 99,398 "/>
<polyline fill="none" opacity="0.2" stroke="#000000" stroke-width="1" points="390,259 99,338 "/>
<polyline fill="none" opacity="0.2" stroke="#000000" stroke-width="1" points="390,198 99,278 "/>
<polyline fill="none" opacity="0.2" stroke="#000000" stroke-width="1" points="390,138 99,218 "/>
<polyline fill="none" opacity="0.2" stroke="#000000" stroke-width="1" points="390,78 99,157 "/>
<polyline fill="none" opacity="0.2" stroke="#000000" stroke-width="1" points="390,17 99,97 "/>
<polyline fill="none" opacity="0.2" stroke="#000000" stroke-width="1" points="362,626 362,25 "/>
<polyline fill="none" opacity="0.2" stroke="#000000" stroke-width="1" points="332,634 332,33 "/>
<polyline fill="none" opacity="0.2" stroke="#000000" stroke-width="1" points="303,642 303,41 "/>
<polyline fill="none" opacity="0.2" stroke="#000000" stroke-width="1" points="274,650 274,49 "/>
<polyline fill="none" opacity="0.2" stroke="#000000" stroke-width="1" points="245,658 245,57 "/>
<polyline fill="none" opacity="0.2" stroke="#000000" stroke-width="1" points="216,666 216,65 "/>
<polyline fill="none" opacity="0.2" stroke="#000000" stroke-width="1" points="187,674 187,73 "/>
<polyline fill="none" opacity="0.2" stroke="#000000" stroke-width="1" points="157,682 157,81 "/>
<polyline fill="none" opacity="0.2" stroke="#000000" stroke-width="1" points="128,690 128,89 "/>
<polyline fill="none" opacity="0.2" stroke="#000000" stroke-width="1" points="99,698 99,97 "/>
<polygon opacity="0.1" fill="#000000" points="390,618 99,698 633,742 924,662 "/>
<polyline fill="none" opacity="0.2" stroke="#000000" stroke-width="1" points="390,618 99,698 633,742 924,662 390,618 "/>
<polyline fill="none" opacity="0.2" stroke="#000000" stroke-width="1" points="443,623 152,702 "/>
<polyline fill="none" opacity="0.2" stroke="#000000" stroke-width="1" points="497,627 205,707 "/>
<polyline fill="none" opacity="0.2" stroke="#000000" stroke-width="1" points="550,631 259,711 "/>
<polyline fill="none" opacity="0.2" stroke="#000000" stroke-width="1" points="604,636 312,716 "/>
<polyline fill="none" opacity="0.2" stroke="#000000" stroke-width="1" points="657,640 366,720 "/>
<polyline fill="none" opacity="0.2" stroke="#000000" stroke-width="1" points="710,645 418,724 "/>
<polyline fill="none" opacity="0.2" stroke="#000000" stroke-width="1" points="763,649 472,729 "/>
<polyline fill="none" opacity="0.2" stroke="#000000" stroke-width="1" points="817,653 525,733 "/>
<polyline fill="none" opacity="0.2" stroke="#000000" stroke-width="1" points="870,658 579,737 "/>
<polyline fill="none" opacity="0.2" stroke="#000000" stroke-width="1" points="924,662 633,742 "/>
<polyline fill="none" opacity="0.2" stroke="#000000" stroke-width="1" points="362,626 895,670 "/>
<polyline fill="none" opacity="0.2" stroke="#000000" stroke-width="1" points="332,634 866,678 "/>
<polyline fill="none" opacity="0.2" stroke="#000000" stroke-width="1" points="303,642 837,686 "/>
<polyline fill="none" opacity="0.2" stroke="#000000" stroke-width="1" points="274,650 808,694 "/>
<polyline fill="none" opacity="0.2" stroke="#000000" stroke-width="1" points="245,658 778,702 "/>
<polyline fill="none" opacity="0.2" stroke="#000000" stroke-width="1" points="216,666 750,710 "/>
<polyline fill="none" opacity="0.2" stroke="#000000" stroke-width="1" points="187,674 720,718 "/>
<polyline fill="none" opacity="0.2" stroke="#000000" stroke-width="1" points="157,682 691,726 "/>
<polyline fill="none" opacity="0.2" stroke="#000000" stroke-width="1" points="128,690 662,734 "/>
<polyline fill="none" opacity="0.2" stroke="#000000" stroke-width="1" points="99,698 633,742 "/>
<polygon opacity="0.1" fill="#000000" points="390,618 924,662 924,61 390,17 "/>
<polyline fill="none" opacity="0.2" stroke="#000000" stroke-width="1" points="390,618 924,662 924,61 390,17 390,618 "/>
<polyline fill="none" opacity="0.2" stroke="#000000" stroke-width="1" points="443,623 443,22 "/>
<polyline fill="none" opacity="0.2" stroke="#000000" stroke-width="1" points="497,627 497,26 "/>
<polyline fill="none" opacity="0.2" stroke="#000000" stroke-width="1" points="550,631 550,30 "/>
<polyline fill="none" opacity="0.2" stroke="#000000" stroke-width="1" points="604,636 604,35 "/>
<polyline fill="none" opacity="0.2" stroke="#000000" stroke-width="1" points="657,640 657,39 "/>
<polyline fill="none" opacity="0.2" stroke="#000000" stroke-width="1" points="710,645 710,43 "/>
<polyline fill="none" opacity="0.2" stroke="#000000" stroke-width="1" points="763,649 763,48 "/>
<polyline fill="none" opacity="0.2" stroke="#000000" stroke-width="1" points="817,653 817,52 "/>
<polyline fill="none" opacity="0.2" stroke="#000000" stroke-width="1" points="870,658 870,56 "/>
<polyline fill="none" opacity="0.2" stroke="#000000" stroke-width="1" points="924,662 924,61 "/>
<polyline fill="none" opacity="0.2" stroke="#000000" stroke-width="1" points="390,559 924,603 "/>
<polyline fill="none" opacity="0.2" stroke="#000000" stroke-width="1" points="390,499 924,542 "/>
<polyline fill="none" opacity="0.2" stroke="#000000" stroke-width="1" points="390,438 924,482 "/>
<polyline fill="none" opacity="0.2" stroke="#000000" stroke-width="1" points="390,378 924,422 "/>
<polyline fill="none" opacity="0.2" stroke="#000000" stroke-width="1" points="390,318 924,361 "/>
<polyline fill="none" opacity="0.2" stroke="#000000" stroke-width="1" points="390,259 924,302 "/>
<polyline fill="none" opacity="0.2" stroke="#000000" stroke-width="1" points="390,198 924,242 "/>
<polyline fill="none" opacity="0.2" stroke="#000000" stroke-width="1" points="390,138 924,181 "/>
<polyline fill="none" opacity="0.2" stroke="#000000" stroke-width="1" points="390,78 924,121 "/>
<polyline fill="none" opacity="0.2" stroke="#000000" stroke-width="1" points="390,17 924,61 "/>
<polyline fill="none" opacity="0.8" stroke="#000000" stroke-width="1" points="99,698 633,742 "/>
<polyline fill="none" opacity="0.8" stroke="#000000" stroke-width="1" points="152,702 152,707 "/>
<text x="152" y="712" dy="0.76em" text-anchor="middle" font-family="sans-serf" font-size="9.67741935483871" opacity="1" fill="#000000">
0.5
</text>
<polyline fill="none" opacity="0.8" stroke="#000000" stroke-width="1" points="205,707 205,712 "/>
<text x="205" y="717" dy="0.76em" text-anchor="middle" font-family="sans-serf" font-size="9.67741935483871" opacity="1" fill="#000000">
1.0
</text>
<polyline fill="none" opacity="0.8" stroke="#000000" stroke-width="1" points="259,711 259,716 "/>
<text x="259" y="721" dy="0.76em" text-anchor="middle" font-family="sans-serf" font-size="9.67741935483871" opacity="1" fill="#000000">
1.5
</text>
<polyline fill="none" opacity="0.8" stroke="#000000" stroke-width="1" points="312,716 312,721 "/>
<text x="312" y="726" dy="0.76em" text-anchor="middle" font-family="sans-serf" font-size="9.67741935483871" opacity="1" fill="#000000">
2.0
</text>
<polyline fill="none" opacity="0.8" stroke="#000000" stroke-width="1" points="366,720 366,725 "/>
<text x="366" y="730" dy="0.76em" text-anchor="middle" font-family="sans-serf" font-size="9.67741935483871" opacity="1" fill="#000000">
2.5
</text>
<polyline fill="none" opacity="0.8" stroke="#000000" stroke-width="1" points="418,724 418,729 "/>
<text x="418" y="734" dy="0.76em" text-anchor="middle" font-family="sans-serf" font-size="9.67741935483871" opacity="1" fill="#000000">
3.0
</text>
<polyline fill="none" opacity="0.8" stroke="#000000" stroke-width="1" points="472,729 472,734 "/>
<text x="472" y="739" dy="0.76em" text-anchor="middle" font-family="sans-serf" font-size="9.67741935483871" opacity="1" fill="#000000">
3.5
</text>
<polyline fill="none" opacity="0.8" stroke="#000000" stroke-width="1" points="525,733 525,738 "/>
<text x="525" y="743" dy="0.76em" text-anchor="middle" font-family="sans-serf" font-size="9.67741935483871" opacity="1" fill="#000000">
4.0
</text>
<polyline fill="none" opacity="0.8" stroke="#000000" stroke-width="1" points="579,737 579,742 "/>
<text x="579" y="747" dy="0.76em" text-anchor="middle" font-family="sans-serf" font-size="9.67741935483871" opacity="1" fill="#000000">
4.5
</text>
<polyline fill="none" opacity="0.8" stroke="#000000" stroke-width="1" points="633,742 633,747 "/>
<text x="633" y="752" dy="0.76em" text-anchor="middle" font-family="sans-serf" font-size="9.67741935483871" opacity="1" fill="#000000">
5.0
</text>
<polyline fill="none" opacity="0.8" stroke="#000000" stroke-width="1" points="99,698 99,97 "/>
<polyline fill="none" opacity="0.8" stroke="#000000" stroke-width="1" points="99,639 94,639 "/>
<text x="89" y="639" dy="0.5ex" text-anchor="end" font-family="sans-serf" font-size="9.67741935483871" opacity="1" fill="#000000">
0.5
</text>
<polyline fill="none" opacity="0.8" stroke="#000000" stroke-width="1" points="99,579 94,579 "/>
<text x="89" y="579" dy="0.5ex" text-anchor="end" font-family="sans-serf" font-size="9.67741935483871" opacity="1" fill="#000000">
1.0
</text>
<polyline fill="none" opacity="0.8" stroke="#000000" stroke-width="1" points="99,518 94,518 "/>
<text x="89" y="518" dy="0.5ex" text-anchor="end" font-family="sans-serf" font-size="9.67741935483871" opacity="1" fill="#000000">
1.5
</text>
<polyline fill="none" opacity="0.8" stroke="#000000" stroke-width="1" points="99,458 94,458 "/>
<text x="89" y="458" dy="0.5ex" text-anchor="end" font-family="sans-serf" font-size="9.67741935483871" opacity="1" fill="#000000">
2.0
</text>
<polyline fill="none" opacity="0.8" stroke="#000000" stroke-width="1" points="99,398 94,398 "/>
<text x="89" y="398" dy="0.5ex" text-anchor="end" font-family="sans-serf" font-size="9.67741935483871" opacity="1" fill="#000000">
2.5
</text>
<polyline fill="none" opacity="0.8" stroke="#000000" stroke-width="1" points="99,338 94,338 "/>
<text x="89" y="338" dy="0.5ex" text-anchor="end" font-family="sans-serf" font-size="9.67741935483871" opacity="1" fill="#000000">
3.0
</text>
<polyline fill="none" opacity="0.8" stroke="#000000" stroke-width="1" points="99,278 94,278 "/>
<text x="89" y="278" dy="0.5ex" text-anchor="end" font-family="sans-serf" font-size="9.67741935483871" opacity="1" fill="#000000">
3.5
</text>
<polyline fill="none" opacity="0.8" stroke="#000000" stroke-width="1" points="99,218 94,218 "/>
<text x="89" y="218" dy="0.5ex" text-anchor="end" font-family="sans-serf" font-size="9.67741935483871" opacity="1" fill="#000000">
4.0
</text>
<polyline fill="none" opacity="0.8" stroke="#000000" stroke-width="1" points="99,157 94,157 "/>
<text x="89" y="157" dy="0.5ex" text-anchor="end" font-family="sans-serf" font-size="9.67741935483871" opacity="1" fill="#000000">
4.5
</text>
<polyline fill="none" opacity="0.8" stroke="#000000" stroke-width="1" points="99,97 94,97 "/>
<text x="89" y="97" dy="0.5ex" text-anchor="end" font-family="sans-serf" font-size="9.67741935483871" opacity="1" fill="#000000">
5.0
</text>
<polyline fill="none" opacity="0.8" stroke="#000000" stroke-width="1" points="924,662 633,742 "/>
<polyline fill="none" opacity="0.8" stroke="#000000" stroke-width="1" points="895,670 895,675 "/>
<text x="895" y="680" dy="0.76em" text-anchor="middle" font-family="sans-serf" font-size="9.67741935483871" opacity="1" fill="#000000">
0.5
</text>
<polyline fill="none" opacity="0.8" stroke="#000000" stroke-width="1" points="866,678 866,683 "/>
<text x="866" y="688" dy="0.76em" text-anchor="middle" font-family="sans-serf" font-size="9.67741935483871" opacity="1" fill="#000000">
1.0
</text>
<polyline fill="none" opacity="0.8" stroke="#000000" stroke-width="1" points="837,686 837,691 "/>
<text x="837" y="696" dy="0.76em" text-anchor="middle" font-family="sans-serf" font-size="9.67741935483871" opacity="1" fill="#000000">
1.5
</text>
<polyline fill="none" opacity="0.8" stroke="#000000" stroke-width="1" points="808,694 808,699 "/>
<text x="808" y="704" dy="0.76em" text-anchor="middle" font-family="sans-serf" font-size="9.67741935483871" opacity="1" fill="#000000">
2.0
</text>
<polyline fill="none" opacity="0.8" stroke="#000000" stroke-width="1" points="778,702 778,707 "/>
<text x="778" y="712" dy="0.76em" text-anchor="middle" font-family="sans-serf" font-size="9.67741935483871" opacity="1" fill="#000000">
2.5
</text>
<polyline fill="none" opacity="0.8" stroke="#000000" stroke-width="1" points="750,710 750,715 "/>
<text x="750" y="720" dy="0.76em" text-anchor="middle" font-family="sans-serf" font-size="9.67741935483871" opacity="1" fill="#000000">
3.0
</text>
<polyline fill="none" opacity="0.8" stroke="#000000" stroke-width="1" points="720,718 720,723 "/>
<text x="720" y="728" dy="0.76em" text-anchor="middle" font-family="sans-serf" font-size="9.67741935483871" opacity="1" fill="#000000">
3.5
</text>
<polyline fill="none" opacity="0.8" stroke="#000000" stroke-width="1" points="691,726 691,731 "/>
<text x="691" y="736" dy="0.76em" text-anchor="middle" font-family="sans-serf" font-size="9.67741935483871" opacity="1" fill="#000000">
4.0
</text>
<polyline fill="none" opacity="0.8" stroke="#000000" stroke-width="1" points="662,734 662,739 "/>
<text x="662" y="744" dy="0.76em" text-anchor="middle" font-family="sans-serf" font-size="9.67741935483871" opacity="1" fill="#000000">
4.5
</text>
<polyline fill="none" opacity="0.8" stroke="#000000" stroke-width="1" points="633,742 633,747 "/>
<text x="633" y="752" dy="0.76em" text-anchor="middle" font-family="sans-serf" font-size="9.67741935483871" opacity="1" fill="#000000">
5.0
</text>
<polyline fill="none" opacity="1" stroke="#FF0000" stroke-width="1" points="390,618 392,599 393,581 394,562 396,543 397,525 399,508 400,491 403,474 405,458 407,442 408,427 411,411 414,396 415,382 418,368 420,354 423,340 425,328 428,314 431,302 433,291 436,279 439,268 442,257 445,246 448,236 451,227 453,217 457,207 460,199 463,190 466,181 470,174 473,166 476,159 479,152 482,145 485,139 489,133 492,127 495,122 498,116 502,111 505,107 508,102 510,98 514,95 518,91 520,88 523,85 526,83 530,81 532,79 535,76 538,75 541,74 544,73 546,72 549,71 552,71 554,71 557,72 559,72 562,73 564,74 567,74 569,76 571,78 573,80 575,82 577,85 579,87 581,90 582,92 584,96 585,99 586,103 588,107 589,111 590,115 591,119 592,124 592,129 593,134 593,139 593,145 594,150 594,155 593,161 594,167 593,174 593,180 592,187 591,193 590,200 590,207 588,214 587,222 586,229 584,236 "/>
<rect x="969" y="370" width="50" height="20" opacity="1" fill="none" stroke="#000000"/>
</svg>
